<?xml version="1.0" encoding="UTF-8"?> <!-- Generator: Adobe Illustrator 23.1.0, SVG Export Plug-In . SVG Version: 6.00 Build 0) --> <svg xmlns="http://www.w3.org/2000/svg" xmlns:xlink="http://www.w3.org/1999/xlink" id="Layer_1" x="0px" y="0px" viewBox="0 0 53.3 35.1" style="enable-background:new 0 0 53.3 35.1;" xml:space="preserve"> <g> <path d="M53.1,16.7C52.6,16.1,41.8,0,27.6,0C12.1,0,0.7,16,0.3,16.7c-0.4,0.5-0.4,1.2,0,1.7c0.5,0.7,11.8,16.7,27.4,16.7 c14.1,0,25-16.1,25.4-16.7C53.4,17.9,53.4,17.2,53.1,16.7z M27.6,32.1c-12,0-21.7-11.3-24.3-14.6C5.9,14.3,15.6,3,27.6,3 c10.8,0,20,11.4,22.3,14.6C47.6,20.8,38.5,32.1,27.6,32.1z"></path> <path d="M26.7,7.1c-5.5,0-10,4.7-10,10.5S21.1,28,26.7,28c5.5,0,10-4.7,10-10.5C36.7,11.8,32.2,7.1,26.7,7.1z M26.7,25 c-3.9,0-7-3.4-7-7.5c0-4.1,3.2-7.5,7-7.5c3.9,0,7,3.4,7,7.5S30.5,25,26.7,25z"></path> </g> </svg> 